<?xml version="1.0" standalone="no"?>
<svg xmlns="http://www.w3.org/2000/svg" viewBox="0 0 150 67" width="150" height="67"><g fill="#2eb1d5" color="#2eb1d5" transform="translate(57.321 0) scale(0.546875) "><svg width="64.0" height="64.0" x="0.0" y="0.0" viewBox="0 0 64 64"><g><g><g><g><path d="M57.53,30c-0.553,0-1.005-0.447-1.005-1s0.442-1,0.994-1h0.011c0.552,0,1,0.447,1,1S58.082,30,57.53,30z"></path></g><g><path d="M57.5,27c-0.553,0-1-0.447-1-1c0-2.254,1.469-3.306,2.649-4.151C60.41,20.945,61.5,20.166,61.5,18c0-2.206-1.794-4-4-4      s-4,1.794-4,4c0,0.553-0.447,1-1,1s-1-0.447-1-1c0-3.309,2.691-6,6-6s6,2.691,6,6c0,3.193-1.767,4.459-3.187,5.475      C59.122,24.328,58.5,24.828,58.5,26C58.5,26.553,58.053,27,57.5,27z"></path></g></g><g><g><path d="M6.53,30c-0.553,0-1.005-0.447-1.005-1s0.442-1,0.994-1H6.53c0.552,0,1,0.447,1,1S7.082,30,6.53,30z"></path></g><g><path d="M6.5,27c-0.553,0-1-0.447-1-1c0-2.254,1.469-3.306,2.649-4.151C9.41,20.945,10.5,20.166,10.5,18c0-2.206-1.794-4-4-4      s-4,1.794-4,4c0,0.553-0.447,1-1,1s-1-0.447-1-1c0-3.309,2.691-6,6-6s6,2.691,6,6c0,3.193-1.767,4.459-3.187,5.475      C8.122,24.328,7.5,24.828,7.5,26C7.5,26.553,7.053,27,6.5,27z"></path></g></g><g><path d="M50.5,48c-0.553,0-1-0.447-1-1c0-3.309-2.691-6-6-6c-0.553,0-1-0.447-1-1s0.447-1,1-1c4.411,0,8,3.589,8,8     C51.5,47.553,51.053,48,50.5,48z"></path></g><g><path d="M43.5,41h-5c-0.553,0-1-0.447-1-1s0.447-1,1-1h5c0.553,0,1,0.447,1,1S44.053,41,43.5,41z"></path></g><g><path d="M50.5,58c-0.553,0-1-0.447-1-1v-9.855c0-0.553,0.447-1,1-1s1,0.447,1,1V57C51.5,57.553,51.053,58,50.5,58z"></path></g><g><path d="M14.5,48c-0.553,0-1-0.447-1-1c0-4.411,3.589-8,8-8c0.553,0,1,0.447,1,1s-0.447,1-1,1c-3.309,0-6,2.691-6,6     C15.5,47.553,15.053,48,14.5,48z"></path></g><g><path d="M26.5,41h-5c-0.553,0-1-0.447-1-1s0.447-1,1-1h5c0.553,0,1,0.447,1,1S27.053,41,26.5,41z"></path></g><g><path d="M14.5,58c-0.553,0-1-0.447-1-1v-9.855c0-0.553,0.447-1,1-1s1,0.447,1,1V57C15.5,57.553,15.053,58,14.5,58z"></path></g><g><path d="M26.5,41c-0.553,0-1-0.447-1-1v-4.348c0-0.553,0.447-1,1-1s1,0.447,1,1V40C27.5,40.553,27.053,41,26.5,41z"></path></g><g><path d="M38.5,41c-0.553,0-1-0.447-1-1v-4.348c0-0.553,0.447-1,1-1s1,0.447,1,1V40C39.5,40.553,39.053,41,38.5,41z"></path></g><g><path d="M32.5,38c-8.271,0-15-6.729-15-15c0-0.553,0.447-1,1-1s1,0.447,1,1c0,7.168,5.832,13,13,13s13-5.832,13-13     c0-0.553,0.447-1,1-1s1,0.447,1,1C47.5,31.271,40.771,38,32.5,38z"></path></g><g><path d="M18.5,23.977c-0.553,0-1-0.447-1-1V13c0-0.553,0.447-1,1-1s1,0.447,1,1v9.977C19.5,23.529,19.053,23.977,18.5,23.977z"></path></g><g><path d="M46.5,24.001c-0.553,0-1-0.447-1-1v-11c0-0.553,0.447-1,1-1s1,0.447,1,1v11C47.5,23.554,47.053,24.001,46.5,24.001z"></path></g><g><path d="M46.5,13c-0.553,0-1-0.447-1-1c0-2.757-2.243-5-5-5c-0.553,0-1-0.447-1-1s0.447-1,1-1c3.859,0,7,3.141,7,7     C47.5,12.553,47.053,13,46.5,13z"></path></g><g><path d="M40.5,7c-0.553,0-1-0.447-1-1V1c0-0.553,0.447-1,1-1s1,0.447,1,1v5C41.5,6.553,41.053,7,40.5,7z"></path></g><g><path d="M40.5,2h-10c-0.553,0-1-0.447-1-1s0.447-1,1-1h10c0.553,0,1,0.447,1,1S41.053,2,40.5,2z"></path></g><g><path d="M18.5,14c-0.553,0-1-0.447-1-1c0-7.168,5.832-13,13-13c0.553,0,1,0.447,1,1s-0.447,1-1,1c-6.065,0-11,4.935-11,11     C19.5,13.553,19.053,14,18.5,14z"></path></g><g><g><path d="M46.5,19c-0.256,0-0.512-0.098-0.707-0.293l-4-4c-0.391-0.391-0.391-1.023,0-1.414s1.023-0.391,1.414,0l4,4      c0.391,0.391,0.391,1.023,0,1.414C47.012,18.902,46.756,19,46.5,19z"></path></g><g><path d="M32.5,17c-5.574,0-10.206-1.999-10.4-2.084c-0.506-0.221-0.736-0.811-0.516-1.316s0.808-0.737,1.316-0.516      C22.944,13.103,27.359,15,32.5,15c5.16,0,9.556-1.897,9.6-1.916c0.506-0.224,1.096,0.01,1.316,0.516      c0.222,0.506-0.009,1.095-0.516,1.316C42.706,15.001,38.074,17,32.5,17z"></path></g><g><path d="M18.5,18.988c-0.257,0-0.513-0.098-0.708-0.294c-0.39-0.391-0.39-1.024,0.002-1.414l4-3.988      c0.392-0.39,1.024-0.39,1.414,0.002c0.39,0.391,0.39,1.024-0.002,1.414l-4,3.988C19.011,18.891,18.756,18.988,18.5,18.988z"></path></g></g><g><path d="M29.499,43c-0.19,0-0.383-0.055-0.554-0.168l-3-2c-0.46-0.307-0.584-0.927-0.277-1.387     c0.306-0.46,0.925-0.584,1.387-0.277l3,2c0.46,0.307,0.584,0.927,0.277,1.387C30.14,42.844,29.822,43,29.499,43z"></path></g><g><path d="M29.5,43c-0.419,0-0.809-0.265-0.948-0.684c-0.175-0.524,0.108-1.091,0.632-1.265l3-1     c0.529-0.176,1.091,0.108,1.265,0.632c0.175,0.524-0.108,1.091-0.632,1.265l-3,1C29.711,42.983,29.604,43,29.5,43z"></path></g><g><path d="M35.501,43c-0.323,0-0.641-0.156-0.833-0.445c-0.307-0.46-0.183-1.08,0.277-1.387l3-2c0.46-0.307,1.08-0.183,1.387,0.277     s0.183,1.08-0.277,1.387l-3,2C35.884,42.945,35.691,43,35.501,43z"></path></g><g><path d="M35.5,43c-0.104,0-0.211-0.017-0.316-0.052l-3-1c-0.523-0.174-0.807-0.74-0.632-1.265     c0.175-0.523,0.735-0.808,1.265-0.632l3,1c0.523,0.174,0.807,0.74,0.632,1.265C36.309,42.735,35.919,43,35.5,43z"></path></g><g><path d="M32.53,47c-0.553,0-1.005-0.447-1.005-1s0.442-1,0.994-1h0.011c0.552,0,1,0.447,1,1S33.082,47,32.53,47z"></path></g><g><path d="M32.53,52c-0.553,0-1.005-0.447-1.005-1s0.442-1,0.994-1h0.011c0.552,0,1,0.447,1,1S33.082,52,32.53,52z"></path></g><g><g><path d="M35.5,62c-2.206,0-4-1.794-4-4c0-0.553,0.447-1,1-1s1,0.447,1,1c0,1.103,0.897,2,2,2c0.553,0,1,0.447,1,1      S36.053,62,35.5,62z"></path></g><g><path d="M58.5,62h-23c-0.553,0-1-0.447-1-1s0.447-1,1-1h23c0.553,0,1,0.447,1,1S59.053,62,58.5,62z"></path></g><g><path d="M56.5,64c-0.256,0-0.512-0.098-0.707-0.293c-0.391-0.391-0.391-1.023,0-1.414l2-2c0.391-0.391,1.023-0.391,1.414,0      s0.391,1.023,0,1.414l-2,2C57.012,63.902,56.756,64,56.5,64z"></path></g><g><path d="M58.5,62c-0.256,0-0.512-0.098-0.707-0.293l-2-2c-0.391-0.391-0.391-1.023,0-1.414s1.023-0.391,1.414,0l2,2      c0.391,0.391,0.391,1.023,0,1.414C59.012,61.902,58.756,62,58.5,62z"></path></g><g><path d="M32.5,59c-0.553,0-1-0.447-1-1v-2c0-0.553,0.447-1,1-1s1,0.447,1,1v2C33.5,58.553,33.053,59,32.5,59z"></path></g></g><g><g><path d="M29.5,62c-0.553,0-1-0.447-1-1s0.447-1,1-1c1.103,0,2-0.897,2-2c0-0.553,0.447-1,1-1s1,0.447,1,1      C33.5,60.206,31.706,62,29.5,62z"></path></g><g><path d="M29.5,62h-23c-0.553,0-1-0.447-1-1s0.447-1,1-1h23c0.553,0,1,0.447,1,1S30.053,62,29.5,62z"></path></g><g><path d="M8.5,64c-0.256,0-0.512-0.098-0.707-0.293l-2-2c-0.391-0.391-0.391-1.023,0-1.414s1.023-0.391,1.414,0l2,2      c0.391,0.391,0.391,1.023,0,1.414C9.012,63.902,8.756,64,8.5,64z"></path></g><g><path d="M6.5,62c-0.256,0-0.512-0.098-0.707-0.293c-0.391-0.391-0.391-1.023,0-1.414l2-2c0.391-0.391,1.023-0.391,1.414,0      s0.391,1.023,0,1.414l-2,2C7.012,61.902,6.756,62,6.5,62z"></path></g></g></g></g></svg></g><line x1="58.370000000000005" y1="41" x2="91.27000000000001" y2="41" stroke="#02094a" stroke-linecap="round"></line><path fill="#02094a" fill-rule="nonzero" d="M5.23 19.82L5.23 19.82Q3.17 19.82 2.03 18.96Q0.89 18.10 0.44 16.63Q0 15.17 0 13.37L0 13.37L0 6.50Q0 4.54 0.44 3.07Q0.89 1.61 2.03 0.80Q3.17 0 5.23 0L5.23 0Q7.06 0 8.12 0.67Q9.19 1.34 9.66 2.59Q10.13 3.84 10.13 5.59L10.13 5.59L10.13 7.13L7.56 7.13L7.56 5.76Q7.56 4.68 7.45 3.85Q7.34 3.02 6.86 2.57Q6.38 2.11 5.26 2.11L5.26 2.11Q4.10 2.11 3.58 2.60Q3.05 3.10 2.89 4.00Q2.74 4.90 2.74 6.10L2.74 6.10L2.74 13.80Q2.74 15.26 2.98 16.12Q3.22 16.97 3.77 17.33Q4.32 17.69 5.26 17.69L5.26 17.69Q6.36 17.69 6.84 17.20Q7.32 16.70 7.44 15.84Q7.56 14.98 7.56 13.82L7.56 13.82L7.56 12.38L10.13 12.38L10.13 13.82Q10.13 15.60 9.70 16.96Q9.26 18.31 8.21 19.07Q7.15 19.82 5.23 19.82ZM15.43 19.61L12.72 19.61L12.72 0.17L15.43 0.17L15.43 8.57L20.42 8.57L20.42 0.17L23.14 0.17L23.14 19.61L20.42 19.61L20.42 10.51L15.43 10.51L15.43 19.61ZM31.15 19.82L31.15 19.82Q29.18 19.82 28.01 19.06Q26.83 18.29 26.33 16.86Q25.82 15.43 25.82 13.51L25.82 13.51L25.82 6.14Q25.82 4.22 26.34 2.84Q26.86 1.46 28.02 0.73Q29.18 0 31.15 0L31.15 0Q33.12 0 34.27 0.74Q35.42 1.49 35.94 2.86Q36.46 4.22 36.46 6.14L36.46 6.14L36.46 13.54Q36.46 15.43 35.94 16.85Q35.42 18.26 34.27 19.04Q33.12 19.82 31.15 19.82ZM31.15 17.69L31.15 17.69Q32.23 17.69 32.78 17.24Q33.34 16.80 33.53 16.00Q33.72 15.19 33.72 14.11L33.72 14.11L33.72 5.59Q33.72 4.51 33.53 3.73Q33.34 2.95 32.78 2.53Q32.23 2.11 31.15 2.11L31.15 2.11Q30.07 2.11 29.51 2.53Q28.94 2.95 28.75 3.73Q28.56 4.51 28.56 5.59L28.56 5.59L28.56 14.11Q28.56 15.19 28.75 16.00Q28.94 16.80 29.51 17.24Q30.07 17.69 31.15 17.69ZM41.93 19.61L39.26 19.61L39.26 0.17L41.93 0.17L41.93 19.61ZM46.39 19.61L43.87 19.61L47.93 9.43L43.94 0.17L46.46 0.17L49.42 7.03L52.10 0.17L54.62 0.17L50.54 9.65L54.82 19.61L52.30 19.61L49.13 12.29L46.39 19.61ZM63.62 19.61L61.08 19.61L65.21 0.17L67.82 0.17L71.98 19.61L69.41 19.61L68.52 14.71L64.56 14.71L63.62 19.61ZM66.53 4.01L64.92 12.77L68.16 12.77L66.53 4.01ZM78.53 19.82L78.53 19.82Q76.85 19.82 75.73 19.10Q74.62 18.38 74.04 17.11Q73.46 15.84 73.37 14.16L73.37 14.16L75.77 13.51Q75.84 14.54 76.09 15.50Q76.34 16.46 76.92 17.08Q77.50 17.69 78.53 17.69L78.53 17.69Q79.58 17.69 80.12 17.10Q80.66 16.51 80.66 15.41L80.66 15.41Q80.66 14.09 80.06 13.28Q79.46 12.48 78.55 11.66L78.55 11.66L75.29 8.78Q74.33 7.94 73.87 6.95Q73.42 5.95 73.42 4.49L73.42 4.49Q73.42 2.35 74.64 1.18Q75.86 0 77.98 0L77.98 0Q79.13 0 80.00 0.30Q80.88 0.60 81.47 1.22Q82.06 1.85 82.40 2.80Q82.75 3.74 82.87 5.02L82.87 5.02L80.57 5.64Q80.50 4.68 80.28 3.88Q80.06 3.07 79.52 2.58Q78.98 2.09 77.98 2.09L77.98 2.09Q76.97 2.09 76.40 2.63Q75.84 3.17 75.84 4.22L75.84 4.22Q75.84 5.11 76.14 5.69Q76.44 6.26 77.11 6.86L77.11 6.86L80.40 9.74Q81.50 10.70 82.34 12.04Q83.18 13.37 83.18 15.19L83.18 15.19Q83.18 16.63 82.58 17.68Q81.98 18.72 80.94 19.27Q79.90 19.82 78.53 19.82ZM90.14 19.61L87.43 19.61L87.43 2.18L84.14 2.18L84.14 0.17L93.34 0.17L93.34 2.18L90.14 2.18L90.14 19.61ZM97.92 19.61L95.21 19.61L95.21 0.17L99.12 0.17Q101.06 0.17 102.34 0.68Q103.61 1.20 104.22 2.34Q104.83 3.48 104.83 5.33L104.83 5.33Q104.83 6.46 104.59 7.38Q104.35 8.30 103.82 8.94Q103.30 9.58 102.43 9.86L102.43 9.86L105.19 19.61L102.58 19.61L100.03 10.49L97.92 10.49L97.92 19.61ZM97.92 2.11L97.92 8.54L98.95 8.54Q100.10 8.54 100.82 8.26Q101.54 7.97 101.88 7.27Q102.22 6.58 102.22 5.33L102.22 5.33Q102.22 3.62 101.59 2.87Q100.97 2.11 99.12 2.11L99.12 2.11L97.92 2.11ZM115.25 19.61L107.66 19.61L107.66 0.17L115.20 0.17L115.20 2.18L110.38 2.18L110.38 8.62L114.29 8.62L114.29 10.54L110.38 10.54L110.38 17.66L115.25 17.66L115.25 19.61ZM125.74 19.61L123.07 19.61L123.07 0.17L125.74 0.17L125.74 19.61ZM131.59 19.61L128.88 19.61L128.88 0.17L133.70 0.17Q135.46 0.17 136.50 0.80Q137.54 1.44 138.02 2.64Q138.50 3.84 138.50 5.54L138.50 5.54Q138.50 7.08 137.96 8.21Q137.42 9.34 136.37 9.95Q135.31 10.56 133.73 10.56L133.73 10.56L131.59 10.56L131.59 19.61ZM131.59 2.11L131.59 8.62L132.84 8.62Q134.02 8.62 134.69 8.35Q135.36 8.09 135.65 7.43Q135.94 6.77 135.94 5.57L135.94 5.57Q135.94 4.18 135.73 3.43Q135.53 2.69 134.88 2.40Q134.23 2.11 132.86 2.11L132.86 2.11L131.59 2.11ZM144.98 19.82L144.98 19.82Q143.30 19.82 142.19 19.10Q141.07 18.38 140.50 17.11Q139.92 15.84 139.82 14.16L139.82 14.16L142.22 13.51Q142.30 14.54 142.55 15.50Q142.80 16.46 143.38 17.08Q143.95 17.69 144.98 17.69L144.98 17.69Q146.04 17.69 146.58 17.10Q147.12 16.51 147.12 15.41L147.12 15.41Q147.12 14.09 146.52 13.28Q145.92 12.48 145.01 11.66L145.01 11.66L141.74 8.78Q140.78 7.94 140.33 6.95Q139.87 5.95 139.87 4.49L139.87 4.49Q139.87 2.35 141.10 1.18Q142.32 0 144.43 0L144.43 0Q145.58 0 146.46 0.30Q147.34 0.60 147.92 1.22Q148.51 1.85 148.86 2.80Q149.21 3.74 149.33 5.02L149.33 5.02L147.02 5.64Q146.95 4.68 146.74 3.88Q146.52 3.07 145.98 2.58Q145.44 2.09 144.43 2.09L144.43 2.09Q143.42 2.09 142.86 2.63Q142.30 3.17 142.30 4.22L142.30 4.22Q142.30 5.11 142.60 5.69Q142.90 6.26 143.57 6.86L143.57 6.86L146.86 9.74Q147.96 10.70 148.80 12.04Q149.64 13.37 149.64 15.19L149.64 15.19Q149.64 16.63 149.04 17.68Q148.44 18.72 147.40 19.27Q146.35 19.82 144.98 19.82Z" transform="translate(0, 47)"></path></svg>